<svg width="709" height="515" viewBox="0 0 709 515" fill="none" xmlns="http://www.w3.org/2000/svg">
<path d="M661.191 67.8732H85.6398C80.6693 67.8732 76.6398 71.9026 76.6398 76.8732V374.114C76.6398 379.084 80.6693 383.114 85.6398 383.114H661.191C666.161 383.114 670.191 379.084 670.191 374.114V76.8732C670.191 71.9026 666.161 67.8732 661.191 67.8732Z" fill="#F2F2F2"/>
<path opacity="0.3" d="M325.801 121.914H134.038V354.163H325.801V121.914Z" fill="#6C61EB"/>
<path d="M552.785 138.641H399.506V147.005H552.785V138.641Z" fill="#3F3D56"/>
<path d="M622.576 154.082H399.506V162.445H622.576V154.082Z" fill="#3F3D56"/>
<path d="M552.785 191.396H399.506V199.76H552.785V191.396Z" fill="#3F3D56"/>
<path d="M552.785 253.157H399.506V261.521H552.785V253.157Z" fill="#3F3D56"/>
<path d="M622.576 206.836H399.506V215.2H622.576V206.836Z" fill="#3F3D56"/>
<path d="M622.576 222.277H399.506V230.64H622.576V222.277Z" fill="#3F3D56"/>
<path d="M622.576 237.717H399.506V246.081H622.576V237.717Z" fill="#3F3D56"/>
<path d="M479.733 290.472H399.506V312.345H479.733V290.472Z" fill="#6C61EB"/>
<path d="M338.194 109.369H146.431V341.618H338.194V109.369Z" fill="#3F3D56"/>
<path d="M310.799 237.786C310.799 282.892 283.613 298.641 250.078 298.641C216.542 298.641 189.357 282.892 189.357 237.786C189.357 192.681 250.078 135.299 250.078 135.299C250.078 135.299 310.799 192.681 310.799 237.786Z" fill="#6C61EB"/>
<path d="M247.866 291.742L248.488 253.992L274.369 207.291L248.585 248.07L248.865 231.096L266.702 197.308L248.939 226.604V226.605L249.441 196.077L268.542 169.177L249.52 191.276L249.835 135.299L247.86 209.403L248.023 206.346L228.603 177.027L247.711 212.214L245.902 246.309L245.848 245.404L223.461 214.55L245.78 248.601L245.554 252.865L245.514 252.929L245.532 253.279L240.941 339.779H247.074L247.811 295.1L270.075 261.133L247.866 291.742Z" fill="#3F3D56"/>
<path d="M85.7714 515C132.962 515 171.217 510.103 171.217 504.063C171.217 498.023 132.962 493.126 85.7714 493.126C38.5813 493.126 0.326127 498.023 0.326127 504.063C0.326127 510.103 38.5813 515 85.7714 515Z" fill="#3F3D56"/>
<path d="M45.412 201.288L42.5737 207.937L45.7668 250.98C45.7668 250.98 43.9929 253.43 45.7668 255.179C47.5407 256.929 47.1859 257.629 47.1859 257.629C47.1859 257.629 44.3476 257.629 45.7668 259.728C47.1859 261.828 47.1859 262.878 47.1859 262.878L46.4764 264.978C46.4764 264.978 47.8955 266.727 47.8955 268.127C47.8955 269.527 57.12 312.57 57.12 312.57L65.9897 295.423L61.0226 227.184L45.412 201.288Z" fill="#6C61EB"/>
<path d="M138.74 308.957C138.74 308.957 154.35 320.297 154.9 329.366C155.449 338.435 134.778 315.861 134.637 313.317C134.497 310.774 138.74 308.957 138.74 308.957Z" fill="#FFB9B9"/>
<path d="M40.7998 480.542L36.8971 493.14C36.8971 493.14 31.2205 505.388 39.0258 507.138C46.8311 508.888 54.2817 502.239 54.2817 502.239V493.84L57.12 480.542H40.7998Z" fill="#2F2E41"/>
<path d="M104.661 480.542C104.661 480.542 102.887 504.338 106.79 505.738C110.693 507.138 124.529 507.488 124.884 505.738C125.239 503.989 129.497 502.239 126.303 499.789C123.11 497.34 120.982 482.992 120.982 482.992L104.661 480.542Z" fill="#2F2E41"/>
<path d="M68.8279 255.179V265.677C68.8279 265.677 57.12 289.824 52.8625 327.967C48.605 366.111 34.0588 482.292 37.6067 484.392C41.1545 486.491 79.4716 487.891 80.5359 485.092C81.6002 482.292 82.6646 400.406 82.6646 400.406L95.7918 342.665C95.7918 342.665 98.2753 363.312 100.404 366.811C102.533 370.31 96.8561 484.042 100.404 485.792C103.952 487.541 151.848 490.691 151.139 485.092C150.429 479.493 134.464 327.617 134.464 327.617C134.464 327.617 126.303 255.879 123.82 255.179C121.336 254.479 98.6301 253.779 95.0822 254.479C91.5343 255.179 68.8279 255.179 68.8279 255.179Z" fill="#2F2E41"/>
<path d="M95.7917 168.393C106.961 168.393 116.015 159.463 116.015 148.447C116.015 137.43 106.961 128.5 95.7917 128.5C84.623 128.5 75.5689 137.43 75.5689 148.447C75.5689 159.463 84.623 168.393 95.7917 168.393Z" fill="#FFB9B9"/>
<path d="M100.049 165.244C100.049 165.244 89.7604 180.991 92.2439 185.191C94.7274 189.39 65.9897 180.991 65.9897 180.991C65.9897 180.991 83.3742 159.995 83.0194 157.545C82.6646 155.096 100.049 165.244 100.049 165.244Z" fill="#FFB9B9"/>
<path d="M121.336 188.69C121.336 188.69 102.533 182.741 100.049 180.291C98.456 178.686 97.0298 176.928 95.7918 175.042C95.7918 175.042 73.0854 171.893 72.3758 171.893C71.6662 171.893 66.3444 178.192 64.9253 179.592C63.5062 180.991 45.412 190.44 45.412 192.889C45.412 195.339 42.5737 207.937 42.5737 207.937C42.5737 207.937 48.9599 220.885 52.8625 223.684C56.7652 226.484 57.8296 225.784 58.1843 230.333C58.5391 234.883 63.5061 242.231 63.5061 242.231C63.5061 242.231 66.6992 250.28 65.9897 252.73C65.2801 255.179 62.087 257.279 69.5375 256.579C76.9881 255.879 113.886 257.979 113.886 254.129C113.886 250.28 106.79 213.536 106.79 213.536L121.336 188.69Z" fill="#6C61EB"/>
<path d="M114.595 189.39L121.336 188.69C121.336 188.69 123.82 190.09 124.175 203.738C124.529 217.385 124.529 250.28 127.013 253.08C129.497 255.879 139.785 299.272 139.785 299.272C139.785 299.272 142.624 299.972 142.624 302.422C142.624 304.871 145.817 306.971 144.398 309.77C142.978 312.57 145.817 311.87 144.043 313.62C142.269 315.369 133.754 318.869 133.399 316.769C133.044 314.67 134.464 314.32 133.044 313.62C131.625 312.92 131.625 312.57 131.27 310.12C130.916 307.671 127.723 305.221 128.077 304.171C128.432 303.121 112.467 272.676 112.467 271.627C112.467 270.577 111.402 266.727 109.983 266.027C108.564 265.328 106.435 264.628 107.5 262.878C108.564 261.128 104.661 208.637 104.661 208.637L114.595 189.39Z" fill="#6C61EB"/>
<path d="M112.893 135.797C106.692 129.157 96.9529 125.633 88.022 127.608C79.091 129.583 71.5707 137.404 70.8723 146.405C70.7295 148.246 70.8484 150.127 70.3654 151.911C69.553 154.912 67.1354 157.29 66.2832 160.281C65.7123 162.283 65.8815 164.44 65.2765 166.432C64.1586 170.115 60.6984 172.516 58.0612 175.346C56.9932 176.383 56.2 177.664 55.7515 179.074C55.5195 180.325 55.4608 181.601 55.5767 182.868C55.6879 189.694 53.1147 196.298 48.397 201.295C51.171 199.262 54.168 197.543 57.3315 196.171C55.7635 201.096 57.1969 206.924 61.1423 210.316C65.0877 213.708 71.4068 214.235 75.6727 211.244C78.2069 209.467 79.8529 206.74 81.425 204.094L87.3774 194.077C88.454 192.265 89.5781 190.4 91.2984 189.163C92.6655 188.179 94.3266 187.656 95.7028 186.685C99.1742 184.235 100.106 179.44 99.4599 175.278C98.8135 171.116 96.9161 167.252 95.8278 163.181C94.9671 159.961 94.6971 156.271 96.6333 153.543C99.2035 149.922 104.486 149.46 107.978 146.691C109.293 145.648 109.881 144.379 110.822 143.074C111.692 141.869 111.913 142.301 113.26 142.246C116.959 142.094 114.264 137.264 112.893 135.797Z" fill="#2F2E41"/>
<path d="M95.2291 159.229C96.1296 159.229 96.8597 157.5 96.8597 155.369C96.8597 153.237 96.1296 151.508 95.2291 151.508C94.3285 151.508 93.5984 153.237 93.5984 155.369C93.5984 157.5 94.3285 159.229 95.2291 159.229Z" fill="#FFB9B9"/>
<path d="M439.619 467.071C451.146 467.071 460.491 457.853 460.491 446.483C460.491 435.113 451.146 425.896 439.619 425.896C428.092 425.896 418.747 435.113 418.747 446.483C418.747 457.853 428.092 467.071 439.619 467.071Z" fill="#F2F2F2"/>
<path d="M20.8721 61.7614C32.3995 61.7614 41.7442 52.5442 41.7442 41.1743C41.7442 29.8043 32.3995 20.5871 20.8721 20.5871C9.34477 20.5871 0 29.8043 0 41.1743C0 52.5442 9.34477 61.7614 20.8721 61.7614Z" fill="#F2F2F2"/>
<path d="M688.128 41.1743C699.655 41.1743 709 31.9571 709 20.5871C709 9.21717 699.655 0 688.128 0C676.601 0 667.256 9.21717 667.256 20.5871C667.256 31.9571 676.601 41.1743 688.128 41.1743Z" fill="#F2F2F2"/>
</svg>
